# File created by Blade
# Date/Time:  Tue Jan 27 18:05:51 2015
#---------------------------------------------------------
:version 1.10
:name HOM
:units
  mass 1.0
  length 1.000000
  angle deg
:documentation
     Acclaim Skeleton File
:root
   axis xyz
   order TX TY TZ RX RY RZ
   position 0.000000 0.000000 0.000000
   orientation 0 0 0
:bonedata
   begin
      id 1
      name Spine_dum
      direction 0.000000 1.000000 0.000000
      length 5.195262
      axis 0.0 0.0 0.0 xyz
   end
   begin
      id 2
      name LeftUpLeg_dum
      direction 1.000000 0.000000 0.000000
      length 3.351363
      axis 0.0 0.0 0.0 xyz
   end
   begin
      id 3
      name RightUpLeg_dum
      direction -1.000000 0.000000 0.000000
      length 3.351363
      axis 0.0 0.0 0.0 xyz
   end
   begin
      id 4
      name Spine
      direction 0.000000 1.000000 0.000000
      length 0.000000
      axis 0.0 0.0 0.0 xyz
      dof rx ry rz
   end
   begin
      id 5
      name Spine_dum1
      direction 0.000000 1.000000 0.000000
      length 15.653875
      axis 0.0 0.0 0.0 xyz
   end
   begin
      id 6
      name Spine_dum2
      direction 0.000000 1.000000 0.000000
      length 10.329768
      axis 0.0 0.0 0.0 xyz
   end
   begin
      id 7
      name Spine_dum3
      direction 0.000000 1.000000 0.000000
      length 10.329768
      axis 0.0 0.0 0.0 xyz
   end
   begin
      id 8
      name Head
      direction 0.000000 1.000000 0.000000
      length 4.527550
      axis 0.0 0.0 0.0 xyz
      dof rx ry rz
   end
   begin
      id 9
      name LeftShoulder
      direction 1.000000 0.000000 0.000000
      length 6.996006
      axis 0.0 0.0 -90.0 xyz
      dof rx ry rz
   end
   begin
      id 10
      name LeftArm
      direction 1.000000 0.000000 0.000000
      length 10.209302
      axis 0.0 0.0 -90.0 xyz
      dof rx ry rz
   end
   begin
      id 11
      name LeftForeArm
      direction 1.000000 0.000000 0.000000
      length 8.563163
      axis 0.0 0.0 -90.0 xyz
      dof ry rz rx
   end
   begin
      id 12
      name LeftHand
      direction 0.000000 0.000000 0.000000
      length 0.000000
      axis 0.0 0.0 -90.0 xyz
      dof rx ry rz
   end
   begin
      id 13
      name LeftHand_dum1
      direction 0.000000 0.000000 0.000000
      length 0.000000
      axis 0.0 0.0 -90.0 xyz
   end
   begin
      id 14
      name LeftHand_dum2
      direction 1.000000 0.000000 0.000000
      length 3.937000
      axis 0.0 0.0 -90.0 xyz
   end
   begin
      id 15
      name LeftHandThumb1
      direction 0.000000 0.000000 1.000000
      length 3.937000
      axis 0.0 0.0 -90.0 xyz
      dof rx rz ry
   end
   begin
      id 16
      name RightShoulder
      direction -1.000000 0.000000 0.000000
      length 6.996006
      axis 0.0 0.0 90.0 xyz
      dof rx ry rz
   end
   begin
      id 17
      name RightArm
      direction -1.000000 0.000000 0.000000
      length 10.209302
      axis 0.0 0.0 90.0 xyz
      dof rx ry rz
   end
   begin
      id 18
      name RightForeArm
      direction -1.000000 0.000000 0.000000
      length 8.563163
      axis 0.0 0.0 90.0 xyz
      dof ry rz rx
   end
   begin
      id 19
      name RightHand
      direction 0.000000 0.000000 0.000000
      length 0.000000
      axis 0.0 0.0 90.0 xyz
      dof rx ry rz
   end
   begin
      id 20
      name RightHand_dum1
      direction 0.000000 0.000000 0.000000
      length 0.000000
      axis 0.0 0.0 90.0 xyz
   end
   begin
      id 21
      name RightHand_dum2
      direction -1.000000 0.000000 0.000000
      length 3.937000
      axis 0.0 0.0 90.0 xyz
   end
   begin
      id 22
      name RightHandThumb1
      direction 0.000000 0.000000 1.000000
      length 3.937000
      axis 0.0 0.0 90.0 xyz
      dof rx rz ry
   end
   begin
      id 23
      name LeftUpLeg
      direction 0.000000 -1.000000 0.000000
      length 16.346831
      axis 0.0 0.0 0.0 xyz
      dof rx ry rz
   end
   begin
      id 24
      name LeftLeg
      direction 0.000000 -1.000000 0.000000
      length 13.959795
      axis 0.0 0.0 0.0 xyz
      dof rx ry rz
   end
   begin
      id 25
      name LeftFoot
      direction 0.000000 -0.258819 0.965926
      length 5.165550
      axis 15.0 0.0 0.0 xyz
      dof rx ry rz
   end
   begin
      id 26
      name LeftToeBase
      direction 0.000000 0.000000 1.000000
      length 2.952750
      axis 0.0 0.0 0.0 xyz
      dof rx ry rz
   end
   begin
      id 27
      name RightUpLeg
      direction 0.000000 -1.000000 0.000000
      length 16.346831
      axis 0.0 0.0 0.0 xyz
      dof rx ry rz
   end
   begin
      id 28
      name RightLeg
      direction 0.000000 -1.000000 0.000000
      length 13.959795
      axis 0.0 0.0 0.0 xyz
      dof rx ry rz
   end
   begin
      id 29
      name RightFoot
      direction 0.000000 -0.258819 0.965926
      length 5.165550
      axis 15.0 0.0 0.0 xyz
      dof rx ry rz
   end
   begin
      id 30
      name RightToeBase
      direction 0.000000 0.000000 1.000000
      length 2.952750
      axis 0.0 0.0 0.0 xyz
      dof rx ry rz
   end
:hierarchy
   begin
      root Spine_dum LeftUpLeg_dum RightUpLeg_dum
      Spine_dum Spine
      LeftUpLeg_dum LeftUpLeg
      RightUpLeg_dum RightUpLeg
      Spine Spine_dum1 Spine_dum2 Spine_dum3
      Spine_dum1 Head
      Spine_dum2 LeftShoulder
      Spine_dum3 RightShoulder
      LeftShoulder LeftArm
      LeftArm LeftForeArm
      LeftForeArm LeftHand
      LeftHand LeftHand_dum1 LeftHand_dum2
      LeftHand_dum1 LeftHandThumb1
      RightShoulder RightArm
      RightArm RightForeArm
      RightForeArm RightHand
      RightHand RightHand_dum1 RightHand_dum2
      RightHand_dum1 RightHandThumb1
      LeftUpLeg LeftLeg
      LeftLeg LeftFoot
      LeftFoot LeftToeBase
      RightUpLeg RightLeg
      RightLeg RightFoot
      RightFoot RightToeBase
   end

# File created by Blade
# Date/Time:  Tue Jan 27 18:05:41 2015
# Frame Rate: 120.000 fps
#------------------------------------------------------
:FULLY-SPECIFIED
:DEGREES
731
root -1.430140 31.931003 -6.323602 6.455394 21.626061 5.093740
Spine -8.599224 4.064840 -2.282809
Head 1.131851 -13.909642 -8.907796
LeftShoulder -7.342504 14.957338 5.499401
LeftArm 24.181635 40.417090 -71.495628
LeftForeArm -3.449863 -0.000000 13.758880
LeftHand -10.871848 -0.000000 -5.745077
LeftHandThumb1 -26.253704 0.000000 33.147579
RightShoulder -2.812628 49.919896 -45.778854
RightArm 76.562121 29.981213 125.992051
RightForeArm 53.401999 -0.000000 149.393375
RightHand 7.362914 -0.000000 28.020136
RightHandThumb1 -24.326973 -0.000000 -32.862282
LeftUpLeg -2.774736 -9.243354 -1.113129
LeftLeg 1.176141 -0.000000 -0.000000
LeftFoot -13.324078 11.345763 -23.901310
LeftToeBase 8.382260 -0.000000 -0.000000
RightUpLeg 4.522185 -12.561116 -4.017653
RightLeg -4.044664 -0.000000 0.000000
RightFoot -17.110758 -19.651590 11.764000
RightToeBase 5.319794 -0.000000 -0.000000
732
root -1.427855 31.929584 -6.316288 6.413867 21.656317 5.094465
Spine -8.599991 4.054375 -2.304237
Head 1.189542 -14.000094 -8.924204
LeftShoulder -7.364277 14.985441 5.480182
LeftArm 24.200180 40.394968 -71.446636
LeftForeArm -3.430845 -0.000000 13.792867
LeftHand -10.900271 0.000000 -5.757882
LeftHandThumb1 -26.253704 0.000000 33.147579
RightShoulder -2.832520 49.815052 -45.845121
RightArm 76.618758 29.997581 125.973263
RightForeArm 53.371650 -0.000000 149.481286
RightHand 7.373920 -0.000000 27.902397
RightHandThumb1 -24.326973 -0.000000 -32.862282
LeftUpLeg -2.735287 -9.278673 -1.117802
LeftLeg 1.208103 -0.000000 -0.000000
LeftFoot -13.369362 11.328764 -23.921702
LeftToeBase 8.411685 -0.000000 -0.000000
RightUpLeg 4.568583 -12.531695 -4.024230
RightLeg -4.007429 -0.000000 0.000000
RightFoot -17.168573 -19.700854 11.794530
RightToeBase 5.304574 -0.000000 -0.000000
733
root -1.425577 31.927891 -6.308441 6.373975 21.682608 5.099295
Spine -8.600036 4.058720 -2.340479
Head 1.251701 -14.100452 -8.943125
LeftShoulder -7.372796 15.004202 5.473457
LeftArm 24.210962 40.356838 -71.407403
LeftForeArm -3.480375 -0.000000 13.835299
LeftHand -10.933955 -0.000000 -5.829755
LeftHandThumb1 -26.253704 0.000000 33.147579
RightShoulder -2.809500 49.741540 -45.864480
RightArm 76.681647 30.050290 125.935469
RightForeArm 53.302650 -0.000000 149.589057
RightHand 7.391824 0.000000 27.732547
RightHandThumb1 -24.326973 -0.000000 -32.862282
LeftUpLeg -2.692950 -9.319645 -1.125585
LeftLeg 1.235593 -0.000000 -0.000000
LeftFoot -13.411367 11.333813 -23.937330
LeftToeBase 8.375042 -0.000000 -0.000000
RightUpLeg 4.615394 -12.536566 -4.036600
RightLeg -3.973476 -0.000000 0.000000
RightFoot -17.204163 -19.709440 11.800361
RightToeBase 5.284389 -0.000000 -0.000000
734
root -1.424853 31.926411 -6.301130 6.328488 21.697790 5.082056
Spine -8.604932 4.079970 -2.353537
Head 1.330922 -14.198478 -8.990297
LeftShoulder -7.365540 15.006348 5.471668
LeftArm 24.198226 40.337995 -71.390966
LeftForeArm -3.443413 -0.000000 13.874627
LeftHand -10.935178 0.000000 -5.815498
LeftHandThumb1 -26.253704 0.000000 33.147579
RightShoulder -2.779421 49.410096 -45.923723
RightArm 76.993496 30.032919 126.133966
RightForeArm 53.286096 -0.000000 149.753690
RightHand 7.383487 0.000000 27.563741
RightHandThumb1 -24.326973 -0.000000 -32.862282
LeftUpLeg -2.651273 -9.355618 -1.110635
LeftLeg 1.258614 -0.000000 -0.000000
LeftFoot -13.461111 11.335944 -23.951830
LeftToeBase 8.419761 -0.000000 -0.000000
RightUpLeg 4.656294 -12.540444 -4.025500
RightLeg -3.942698 -0.000000 0.000000
RightFoot -17.240822 -19.715331 11.814579
RightToeBase 5.306244 -0.000000 -0.000000
735
root -1.423215 31.925711 -6.295886 6.304624 21.712464 5.092348
Spine -8.607655 4.107357 -2.395038
Head 1.360814 -14.282649 -9.014825
LeftShoulder -7.339008 14.908611 5.479008
LeftArm 24.061670 40.337606 -71.447929
LeftForeArm -3.407826 -0.000000 13.929651
LeftHand -10.881684 -0.000000 -5.730477
LeftHandThumb1 -26.253704 0.000000 33.147579
RightShoulder -2.771826 49.217922 -45.951918
RightArm 77.171961 30.011695 126.216635
RightForeArm 53.156947 0.000000 149.925433
RightHand 7.414201 -0.000000 27.418481
RightHandThumb1 -24.326973 -0.000000 -32.862282
LeftUpLeg -2.630485 -9.389873 -1.122886
LeftLeg 1.294208 -0.000000 -0.000000
LeftFoot -13.481444 11.335334 -23.957013
LeftToeBase 8.406494 -0.000000 -0.000000
RightUpLeg 4.681081 -12.545628 -4.039870
RightLeg -3.907102 -0.000000 0.000000
RightFoot -17.274954 -19.732094 11.813737
RightToeBase 5.299387 -0.000000 -0.000000
736
root -1.422277 31.924211 -6.289460 6.270009 21.714446 5.088472
Spine -8.611876 4.133915 -2.419341
Head 1.396259 -14.315592 -9.042725
LeftShoulder -7.361570 14.933836 5.457027
LeftArm 24.116835 40.333092 -71.376121
LeftForeArm -3.392361 -0.000000 13.973301
LeftHand -10.812918 -0.000000 -5.618273
LeftHandThumb1 -26.253704 0.000000 33.147579
RightShoulder -2.602852 49.575072 -45.786815
RightArm 76.912479 30.233115 125.850363
RightForeArm 53.049436 -0.000000 150.080522
RightHand 7.312933 -0.000000 27.130963
RightHandThumb1 -24.326973 -0.000000 -32.862282
LeftUpLeg -2.597988 -9.392050 -1.124208
LeftLeg 1.325289 -0.000000 -0.000000
LeftFoot -13.520857 11.322639 -23.954874
LeftToeBase 8.423685 -0.000000 -0.000000
RightUpLeg 4.719331 -12.552456 -4.043027
RightLeg -3.888788 -0.000000 0.000000
RightFoot -17.304635 -19.722731 11.817166
RightToeBase 5.287146 -0.000000 -0.000000
737
root -1.420860 31.923511 -6.282849 6.225969 21.705281 5.087418
Spine -8.599488 4.179862 -2.443328
Head 1.424206 -14.342814 -9.072266
LeftShoulder -7.401698 15.005231 5.412162
LeftArm 24.264493 40.342618 -71.226929
LeftForeArm -3.386789 -0.000000 14.012873
LeftHand -10.854986 -0.000000 -5.725551
LeftHandThumb1 -26.253704 0.000000 33.147579
RightShoulder -2.603954 49.605299 -45.801088
RightArm 76.876027 30.300125 125.849919
RightForeArm 52.970529 -0.000000 150.206614
RightHand 7.322009 0.000000 27.074344
RightHandThumb1 -24.326973 -0.000000 -32.862282
LeftUpLeg -2.553270 -9.412101 -1.128147
LeftLeg 1.351724 -0.000000 -0.000000
LeftFoot -13.557352 11.328096 -23.985468
LeftToeBase 8.431147 -0.000000 -0.000000
RightUpLeg 4.765891 -12.578950 -4.054519
RightLeg -3.869563 -0.000000 0.000000
RightFoot -17.326263 -19.672573 11.831765
RightToeBase 5.297591 -0.000000 -0.000000
738
root -1.422139 31.922539 -6.278468 6.210436 21.695360 5.077336
Spine -8.622778 4.198476 -2.467784
Head 1.446356 -14.311620 -9.065739
LeftShoulder -7.439003 15.022029 5.391751
LeftArm 24.311155 40.334409 -71.172204
LeftForeArm -3.349251 -0.000000 14.049360
LeftHand -10.965774 -0.000000 -5.860590
LeftHandThumb1 -26.253704 0.000000 33.147579
RightShoulder -2.603033 49.498550 -45.852241
RightArm 76.978628 30.358529 126.034212
RightForeArm 52.885729 0.000000 150.343581
RightHand 7.336304 -0.000000 26.931794
RightHandThumb1 -24.326973 -0.000000 -32.862282
LeftUpLeg -2.553699 -9.408273 -1.116305
LeftLeg 1.395553 -0.000000 -0.000000
LeftFoot -13.597915 11.320981 -23.987574
LeftToeBase 8.393548 -0.000000 -0.000000
RightUpLeg 4.769816 -12.582289 -4.044070
RightLeg -3.840922 -0.000000 0.000000
RightFoot -17.339643 -19.671137 11.816908
RightToeBase 5.293369 -0.000000 -0.000000
739
root -1.420979 31.921618 -6.272707 6.181296 21.664565 5.072692
Spine -8.623951 4.237791 -2.483310
Head 1.434960 -14.255017 -9.083641
LeftShoulder -7.476867 14.997440 5.364371
LeftArm 24.308058 40.332658 -71.151805
LeftForeArm -3.344402 -0.000000 14.080675
LeftHand -10.850366 -0.000000 -5.575755
LeftHandThumb1 -26.253704 0.000000 33.147579
RightShoulder -2.657695 49.278363 -45.963134
RightArm 77.165504 30.324465 126.338902
RightForeArm 52.871436 -0.000000 150.439382
RightHand 7.426633 -0.000000 27.053453
RightHandThumb1 -24.326973 -0.000000 -32.862282
LeftUpLeg -2.522184 -9.406403 -1.118227
LeftLeg 1.422166 -0.000000 -0.000000
LeftFoot -13.637112 11.316898 -24.001604
LeftToeBase 8.441532 -0.000000 -0.000000
RightUpLeg 4.792423 -12.608500 -4.049079
RightLeg -3.817485 -0.000000 0.000000
RightFoot -17.349452 -19.631866 11.773067
RightToeBase 5.315442 -0.000000 -0.000000
740
root -1.418621 31.921250 -6.266778 6.153497 21.639522 5.078112
Spine -8.631140 4.286166 -2.511803
Head 1.450633 -14.210803 -9.098015
LeftShoulder -7.510266 15.037517 5.323648
LeftArm 24.399302 40.329645 -71.063099
LeftForeArm -3.324259 -0.000000 14.102586
LeftHand -10.774766 -0.000000 -5.699163
LeftHandThumb1 -26.253704 0.000000 33.147579
RightShoulder -2.657369 49.183138 -45.982472
RightArm 77.221519 30.342022 126.447556
RightForeArm 52.857403 -0.000000 150.491633
RightHand 7.420530 0.000000 26.983955
RightHandThumb1 -24.326973 -0.000000 -32.862282
LeftUpLeg -2.489919 -9.416596 -1.132363
LeftLeg 1.449212 -0.000000 -0.000000
LeftFoot -13.664785 11.342915 -24.003627
LeftToeBase 8.393116 -0.000000 -0.000000
RightUpLeg 4.832595 -12.623061 -4.068615
RightLeg -3.820288 -0.000000 0.000000
RightFoot -17.360473 -19.583507 11.793488
RightToeBase 5.343917 -0.000000 -0.000000
741
root -1.418096 31.920574 -6.261542 6.129925 21.611337 5.071587
Spine -8.648840 4.314899 -2.535592
Head 1.473001 -14.146617 -9.104100
LeftShoulder -7.541512 15.044688 5.304628
LeftArm 24.420898 40.309101 -71.047248
LeftForeArm -3.267018 -0.000000 14.122634
LeftHand -10.807223 -0.000000 -5.686331
LeftHandThumb1 -26.253704 0.000000 33.147579
RightShoulder -2.644432 48.997830 -45.971275
RightArm 77.338715 30.296383 126.590205
RightForeArm 52.833758 -0.000000 150.506475
RightHand 7.428971 -0.000000 26.972696
RightHandThumb1 -24.326973 -0.000000 -32.862282
LeftUpLeg -2.475145 -9.406103 -1.133775
LeftLeg 1.491305 -0.000000 -0.000000
LeftFoot -13.719766 11.350781 -24.018876
LeftToeBase 8.436774 -0.000000 -0.000000
RightUpLeg 4.852272 -12.646192 -4.070372
RightLeg -3.808664 -0.000000 0.000000
RightFoot -17.349523 -19.547235 11.754112
RightToeBase 5.312458 -0.000000 -0.000000
